<svg xmlns="http://www.w3.org/2000/svg" width="85" height="85" viewBox="0 0 85 85"><path d="M84.216,49.492,44.215,12a1.13,1.13,0,0,0-.227-.183,2.286,2.286,0,0,0-3.2-.055l-40,37.487a2.571,2.571,0,0,0-.192,3.5,2.3,2.3,0,0,0,3.339.2l7.2-6.761V89.911a6.1,6.1,0,0,0,5.944,6.23H29.7A5.72,5.72,0,0,0,35.282,90.3V68.071a.879.879,0,0,1,.857-.9H48.883a.879.879,0,0,1,.857.9V90.3a5.72,5.72,0,0,0,5.577,5.845H67.939c3.322,0,5.944-3.426,5.944-7.805v-41.9l7.2,6.761a2.3,2.3,0,0,0,3.339-.2A2.609,2.609,0,0,0,84.216,49.492ZM69.146,61.713V88.3c0,1.777-.839,2.858-1.224,2.858H55.3a.879.879,0,0,1-.857-.9V68.071a5.72,5.72,0,0,0-5.577-5.845H36.121a5.72,5.72,0,0,0-5.577,5.845V90.3a.879.879,0,0,1-.857.9H17.065a1.258,1.258,0,0,1-1.224-1.283V41.76L42.38,16.915,69.146,42V61.713Z" transform="translate(0 -11.141)"/></svg>